HIERARCHY
ROOT pelvis
{
  OFFSET 0 100 0
  CHANNELS 6 Xposition Yposition Zposition Zrotation Xrotation Yrotation
  JOINT pelvis_right_femur
  {
    OFFSET -10.78128 -3.44521 -0.5502486
    CHANNELS 3 Zrotation Xrotation Yrotation
    JOINT right_femur_tibia
    {
      OFFSET -0.8047443 -44.0398 -0.1307829
      CHANNELS 3 Zrotation Xrotation Yrotation
      JOINT right_tibia_foot
      {
        OFFSET 3.006224 -47.83518 -5
        CHANNELS 3 Zrotation Xrotation Yrotation
        End Site
        {
          OFFSET 0 -5 15
        }
      }
    }
  }
  JOINT pelvis_left_femur
  {
    OFFSET 10.78128 -3.44521 -0.5502486
    CHANNELS 3 Zrotation Xrotation Yrotation
    JOINT left_femur_tibia
    {
      OFFSET 0.8047443 -44.0398 -0.1307829
      CHANNELS 3 Zrotation Xrotation Yrotation
      JOINT left_tibia_foot
      {
        OFFSET -4.370144 -48.10324 -4.275266
        CHANNELS 3 Zrotation Xrotation Yrotation
        End Site
        {
          OFFSET 0 -5 15
        }
      }
    }
  }
  JOINT pelvis_spine1
  {
    OFFSET 0 6.468898 -3.129235
    CHANNELS 3 Zrotation Xrotation Yrotation
    JOINT spine1
    {
      OFFSET 0 23.15396 4.99043
      CHANNELS 3 Zrotation Xrotation Yrotation
      JOINT spine2
      {
        OFFSET 0 20.79997 -5.064912
        CHANNELS 3 Zrotation Xrotation Yrotation
        JOINT neck
        {
          OFFSET 0 14.38658 9.616178
          CHANNELS 3 Zrotation Xrotation Yrotation
          End Site
          {
            OFFSET 0 20 0
          }
        }
      }
      JOINT right_manubrium
      {
        OFFSET -5.722621 16.35077 3.967754
        CHANNELS 3 Zrotation Xrotation Yrotation
        JOINT right_clavicle
        {
          OFFSET -13.16364 1.694482 -4.693211
          CHANNELS 3 Zrotation Xrotation Yrotation
          JOINT right_humerus
          {
            OFFSET -28.5034 -0.3100689 -2.792744
            CHANNELS 3 Zrotation Xrotation Yrotation
            JOINT right_radius
            {
              OFFSET -25.15693 0.02248979 -1.271978
              CHANNELS 3 Zrotation Xrotation Yrotation
              End Site
              {
                OFFSET -15 0 0
              }
            }
          }
        }
      }
      JOINT left_manubrium
      {
        OFFSET 5.722621 16.35077 3.967754
        CHANNELS 3 Zrotation Xrotation Yrotation
        JOINT left_clavicle
        {
          OFFSET 13.16364 1.694482 -4.693211
          CHANNELS 3 Zrotation Xrotation Yrotation
          JOINT left_humerus
          {
            OFFSET 29.39168 -1.063119 -2.237045
            CHANNELS 3 Zrotation Xrotation Yrotation
            JOINT left_radius
            {
              OFFSET 24.59957 -0.9528479 0.9047498
              CHANNELS 3 Zrotation Xrotation Yrotation
              End Site
              {
                OFFSET 15 -0 -0
              }
            }
          }
        }
      }
    }
  }
}
MOTION
Frames: 7
Frame Time: 0.0416666666667
-1184.605 100.834 -468.3921 13.80951 9.163617 113.6387 7.807852 1.511169 -0.2994918 -0 13.29766 -0 -11.20844 5.99588 -6.637015 -0.6974229 -1.155954 3.231707 -0 28.97086 -0 6.834427 -3.755486 9.380366 2.864797 -7.5425 10.45005 -1.589075 22.7077 -9.114215 1.33254 18.27612 -3.540047 0.2582863 -11.98019 -3.461294 -12.64978 -37.46341 11.33764 105.772 -6.311349 -21.19977 -0 0 28.32371 -23.78792 8.352627 12.48535 -0.8454655 -31.22429 -17.19483 -86.08081 12.66821 35.50136 0 0 -43.17773 -5.618041 5.819004 23.18318
-1177.833 100.8393 -472.0232 13.89311 9.034903 113.11 7.807852 1.511169 -0.2994918 -0 13.29766 -0 -11.20844 5.99588 -6.637015 -0.6974229 -1.155954 3.231707 -0 28.97086 -0 6.834427 -3.755486 9.380366 2.864797 -7.5425 10.45005 -1.589075 22.7077 -9.114215 1.33254 18.27612 -3.540047 0.2582863 -11.98019 -3.461294 -12.64978 -37.46341 11.33764 105.772 -6.311349 -21.19977 -0 0 28.32371 -23.78792 8.352627 12.48535 -0.8454655 -31.22429 -17.19483 -86.08081 12.66821 35.50136 0 0 -43.17773 -5.618041 5.819004 23.18318
-1171.027 100.8447 -475.5905 13.97548 8.905434 112.5817 7.807852 1.511169 -0.2994918 -0 13.29766 -0 -11.20844 5.99588 -6.637015 -0.6974229 -1.155954 3.231707 -0 28.97086 -0 6.834427 -3.755486 9.380366 2.864797 -7.5425 10.45005 -1.589075 22.7077 -9.114215 1.33254 18.27612 -3.540047 0.2582863 -11.98019 -3.461294 -12.64978 -37.46341 11.33764 105.772 -6.311349 -21.19977 -0 0 28.32371 -23.78792 8.352627 12.48535 -0.8454655 -31.22429 -17.19483 -86.08081 12.66821 35.50136 0 0 -43.17773 -5.618041 5.819004 23.18318
-1164.188 100.8501 -479.0939 14.05661 8.775219 112.0538 7.807852 1.511169 -0.2994918 -0 13.29766 -0 -11.20844 5.99588 -6.637015 -0.6974229 -1.155954 3.231707 -0 28.97086 -0 6.834427 -3.755486 9.380366 2.864797 -7.5425 10.45005 -1.589075 22.7077 -9.114215 1.33254 18.27612 -3.540047 0.2582863 -11.98019 -3.461294 -12.64978 -37.46341 11.33764 105.772 -6.311349 -21.19977 -0 0 28.32371 -23.78792 8.352627 12.48535 -0.8454655 -31.22429 -17.19483 -86.08081 12.66821 35.50136 0 0 -43.17773 -5.618041 5.819004 23.18318
-1157.317 100.8554 -482.5329 14.1365 8.644272 111.5263 7.807852 1.511169 -0.2994918 -0 13.29766 -0 -11.20844 5.99588 -6.637015 -0.6974229 -1.155954 3.231707 -0 28.97086 -0 6.834427 -3.755486 9.380366 2.864797 -7.5425 10.45005 -1.589075 22.7077 -9.114215 1.33254 18.27612 -3.540047 0.2582863 -11.98019 -3.461294 -12.64978 -37.46341 11.33764 105.772 -6.311349 -21.19977 -0 0 28.32371 -23.78792 8.352627 12.48535 -0.8454655 -31.22429 -17.19483 -86.08081 12.66821 35.50136 0 0 -43.17773 -5.618041 5.819004 23.18318
-1150.414 100.8608 -485.9073 14.21513 8.512604 110.9991 7.807852 1.511169 -0.2994918 -0 13.29766 -0 -11.20844 5.99588 -6.637015 -0.6974229 -1.155954 3.231707 -0 28.97086 -0 6.834427 -3.755486 9.380366 2.864797 -7.5425 10.45005 -1.589075 22.7077 -9.114215 1.33254 18.27612 -3.540047 0.2582863 -11.98019 -3.461294 -12.64978 -37.46341 11.33764 105.772 -6.311349 -21.19977 -0 0 28.32371 -23.78792 8.352627 12.48535 -0.8454655 -31.22429 -17.19483 -86.08081 12.66821 35.50136 0 0 -43.17773 -5.618041 5.819004 23.18318
-1143.479 100.8662 -489.2168 14.29251 8.380226 110.4723 7.807852 1.511169 -0.2994918 -0 13.29766 -0 -11.20844 5.99588 -6.637015 -0.6974229 -1.155954 3.231707 -0 28.97086 -0 6.834427 -3.755486 9.380366 2.864797 -7.5425 10.45005 -1.589075 22.7077 -9.114215 1.33254 18.27612 -3.540047 0.2582863 -11.98019 -3.461294 -12.64978 -37.46341 11.33764 105.772 -6.311349 -21.19977 -0 0 28.32371 -23.78792 8.352627 12.48535 -0.8454655 -31.22429 -17.19483 -86.08081 12.66821 35.50136 0 0 -43.17773 -5.618041 5.819004 23.18318
